<?xml version="1.0" standalone="no"?><!DOCTYPE svg PUBLIC "-//W3C//DTD SVG 1.1//EN" "http://www.w3.org/Graphics/SVG/1.1/DTD/svg11.dtd"><svg t="1650513352041" class="icon" viewBox="0 0 1024 1024" version="1.1" xmlns="http://www.w3.org/2000/svg" p-id="1640" xmlns:xlink="http://www.w3.org/1999/xlink" width="200" height="200"><defs><style type="text/css">@font-face { font-family: feedback-iconfont; src: url("//at.alicdn.com/t/font_1031158_u69w8yhxdu.woff2?t=1630033759944") format("woff2"), url("//at.alicdn.com/t/font_1031158_u69w8yhxdu.woff?t=1630033759944") format("woff"), url("//at.alicdn.com/t/font_1031158_u69w8yhxdu.ttf?t=1630033759944") format("truetype"); }
</style></defs><path d="M622.927311 789.137615c-6.503881 0-13.007763-2.16796-18.066337-7.226535l-231.249118-231.249118c-10.117149-10.117149-15.898377-23.847565-15.898377-39.023289 0-14.45307 5.781228-28.183486 15.898377-39.023288l231.971771-231.971772c10.117149-10.117149 26.015526-10.117149 35.410022 0 10.117149 10.117149 10.117149 26.015526 0 35.410021l-231.249118 231.971772c-0.722653 0.722653-1.445307 2.16796-1.445307 2.890614 0 0.722653 0 2.16796 1.445307 2.890614l231.249118 231.249118c10.117149 10.117149 10.117149 26.015526 0 35.410021-5.058574 5.781228-11.562456 8.671842-18.066338 8.671842z" p-id="1641"></path></svg>