<?xml version="1.0" standalone="no"?><!DOCTYPE svg PUBLIC "-//W3C//DTD SVG 1.1//EN" "http://www.w3.org/Graphics/SVG/1.1/DTD/svg11.dtd"><svg t="1650514547555" class="icon" viewBox="0 0 1024 1024" version="1.1" xmlns="http://www.w3.org/2000/svg" p-id="1439" xmlns:xlink="http://www.w3.org/1999/xlink" width="200" height="200"><defs><style type="text/css">@font-face { font-family: feedback-iconfont; src: url("//at.alicdn.com/t/font_1031158_u69w8yhxdu.woff2?t=1630033759944") format("woff2"), url("//at.alicdn.com/t/font_1031158_u69w8yhxdu.woff?t=1630033759944") format("woff"), url("//at.alicdn.com/t/font_1031158_u69w8yhxdu.ttf?t=1630033759944") format("truetype"); }
</style></defs><path d="M512.149985 512.049995m-511.950005 0a511.950005 511.950005 0 1 0 1023.90001 0 511.950005 511.950005 0 1 0-1023.90001 0Z" fill="#66BB5E" p-id="1440"></path><path d="M422.558734 829.119031l236.876868 173.283078C840.117957 948.307392 978.904404 796.922176 1014.900889 609.040523L606.640758 319.568792 422.558734 829.119031z" fill="#5FAA57" p-id="1441"></path><path d="M543.446929 838.018162c0 13.498682-14.498584 24.597598-32.396836 24.597598s-32.396836-10.998926-32.396836-24.597598h64.793672z" fill="#1C4765" p-id="1442"></path><path d="M439.357094 824.3195c-3.799629 0-6.799336 3.099697-6.799336 6.799336 0 3.799629 3.099697 6.899326 6.799336 6.899326H582.943072c3.799629 0 6.899326-3.099697 6.899326-6.899326 0-3.699639-3.099697-6.799336-6.899326-6.799336H439.357094z" fill="#2C5871" p-id="1443"></path><path d="M332.367542 473.253784c0-98.790353 79.992188-178.782541 178.782541-178.782541 98.790353 0 178.782541 79.992188 178.782541 178.782541 0 5.799434-4.29958 88.491358-71.692999 175.282882-19.698076 26.197442-16.498389 78.792305-16.298408 78.792306H419.659018s3.799629-52.594864-15.898448-78.792306c-67.293428-86.891515-71.393028-169.483449-71.393028-175.282882" fill="#EE8D01" p-id="1444"></path><path d="M511.150083 727.328972h-91.291085s3.799629-52.694854-15.898447-78.792306c-67.493409-86.891515-71.593008-169.383459-71.593009-175.282882 0-98.790353 79.992188-178.882531 178.782541-178.882531" fill="#FBA92D" p-id="1445"></path><path d="M651.936334 473.153794h-15.698467c0-68.993262-56.094522-125.087784-125.187774-125.087785v-15.698467c77.692413 0 140.886242 63.193829 140.886241 140.786252M550.146275 741.227614l-15.398496-2.499755 30.497021-184.881946 15.498487 2.499756zM472.053901 741.227614l-30.597012-184.881945 15.498486-2.499756 30.597012 184.881946z" fill="#F7D7B8" p-id="1446"></path><path d="M572.044136 579.843375c-6.499365 0-9.199102-6.299385-11.198906-10.898936-0.899912-1.899814-2.599746-5.899424-3.599649-5.899424-0.799922 0.399961-2.099795 3.499658-2.699736 5.099502-1.799824 4.599551-4.599551 11.598867-12.098818 11.598867-4.39957 0-7.099307-4.499561-10.199004-9.699052-1.199883-1.899814-3.199688-5.299482-4.499561-6.599356-1.099893 1.199883-2.699736 3.899619-3.699639 5.699443-3.299678 5.499463-6.299385 10.698955-11.298896 10.698956-4.799531 0-7.799238-4.999512-10.998926-10.398985-1.099893-1.799824-2.799727-4.599551-3.899619-5.899424-1.199883 1.299873-2.999707 4.19959-4.0996 6.099405-3.099697 5.199492-5.999414 10.199004-10.698955 10.199004-5.299482 0-8.69915-5.599453-11.898838-11.098916-1.099893-1.799824-2.599746-4.499561-3.599649-5.499463-1.299873 0.499951-2.199785 2.299775-3.699638 6.199394-1.799824 4.39957-4.0996 10.398984-10.498975 10.398985v-8.39918c0.799922-0.399961 2.099795-3.399668 2.699736-5.099502 1.799824-4.599551 4.599551-11.598867 12.098819-11.598867 4.39957 0 7.099307 4.499561 10.199004 9.699052 1.199883 1.999805 3.199688 5.299482 4.49956 6.599356 1.099893-1.199883 2.699736-3.899619 3.699639-5.699443 3.299678-5.499463 6.299385-10.598965 11.298897-10.598965 4.799531 0 7.799238 4.999512 10.998926 10.398984 1.099893 1.799824 2.699736 4.599551 3.899619 5.899424 1.199883-1.299873 2.999707-4.19959 4.099599-6.099404 3.099697-5.199492 5.999414-10.099014 10.698956-10.099014 5.299482 0 8.69915 5.599453 11.898838 11.098916 1.099893 1.799824 2.599746 4.499561 3.599648 5.499463 1.299873-0.499951 2.199785-2.399766 3.699639-6.199395 1.699834-4.39957 4.0996-10.398984 10.498974-10.398984s9.199102 6.199395 11.298897 10.798945c0.799922 1.899814 2.599746 5.899424 3.599649 5.899424v8.29919z" fill="#F7D7B8" p-id="1447"></path><path d="M602.241187 727.328972v93.49087c0 6.399375-5.199492 11.598867-11.598867 11.598867H431.857826c-6.399375 0-11.598867-5.199492-11.598867-11.598867v-93.49087h181.982228z" fill="#1E5568" p-id="1448"></path><path d="M605.840836 736.428083H416.45933" fill="#103754" p-id="1449"></path><path d="M605.840836 745.627185H416.45933c-5.099502 0-9.199102-4.0996-9.199102-9.199102s4.0996-9.199102 9.199102-9.199101h189.381506c5.099502 0 9.099111 4.0996 9.099111 9.199101s-3.999609 9.199102-9.099111 9.199102" fill="#457489" p-id="1450"></path><path d="M605.840836 766.925105H416.45933" fill="#1695A4" p-id="1451"></path><path d="M605.840836 776.124207H416.45933c-5.099502 0-9.199102-4.0996-9.199102-9.199102s4.0996-9.199102 9.199102-9.199102h189.381506c5.099502 0 9.099111 4.0996 9.099111 9.199102 0.09999 5.099502-3.999609 9.199102-9.099111 9.199102" fill="#457489" p-id="1452"></path><path d="M605.840836 797.522117H416.45933" fill="#1695A4" p-id="1453"></path><path d="M605.840836 806.721219H416.45933c-5.099502 0-9.199102-4.0996-9.199102-9.199102s4.0996-9.199102 9.199102-9.199102h189.381506c5.099502 0 9.099111 4.0996 9.099111 9.199102 0.09999 4.999512-3.999609 9.199102-9.099111 9.199102" fill="#457489" p-id="1454"></path><path d="M519.049312 145.285812v73.992774c0 4.39957-3.599648 7.999219-7.999219 7.999219s-7.999219-3.599648-7.999219-7.999219v-73.992774c0-4.39957 3.599648-7.999219 7.999219-7.999219s7.999219 3.599648 7.999219 7.999219zM842.417733 489.952153h-73.992774c-4.39957 0-7.999219-3.599648-7.999219-7.999219s3.599648-7.999219 7.999219-7.999219h73.992774c4.39957 0 7.999219 3.599648 7.999218 7.999219s-3.599648 7.999219-7.999218 7.999219zM761.825603 252.775315l-57.694366 46.395469c-3.399668 2.799727-8.49917 2.199785-11.198906-1.199883-2.799727-3.399668-2.199785-8.49917 1.199883-11.198906l57.694365-46.395469c3.399668-2.799727 8.49917-2.199785 11.198907 1.199883 2.799727 3.299678 2.299775 8.39918-1.199883 11.198906zM179.982424 490.252124l73.992774-0.09999c4.39957 0 7.999219-3.599648 7.999219-7.999219s-3.599648-7.999219-7.999219-7.999219l-73.992774 0.09999c-4.39957 0-7.999219 3.599648-7.999219 7.999219s3.599648 7.999219 7.999219 7.999219z" fill="#FFFFFF" p-id="1455"></path><path d="M503.050874 145.285812l0.09999 73.992774c0 4.39957 3.599648 7.999219 7.999219 7.999219s7.999219-3.599648 7.999219-7.999219l-0.09999-73.992774c0-4.39957-3.599648-7.999219-7.999219-7.999219s-7.999219 3.599648-7.999219 7.999219zM260.274583 252.975295l57.694365 46.295479c3.399668 2.799727 8.49917 2.199785 11.198907-1.199882 2.799727-3.399668 2.199785-8.49917-1.199883-11.198907l-57.694366-46.295479c-3.399668-2.799727-8.49917-2.199785-11.198906 1.199883-2.799727 3.399668-2.199785 8.49917 1.199883 11.198906z" fill="#FFFFFF" p-id="1456"></path></svg>