<?xml version="1.0" standalone="no"?><!DOCTYPE svg PUBLIC "-//W3C//DTD SVG 1.1//EN" "http://www.w3.org/Graphics/SVG/1.1/DTD/svg11.dtd"><svg t="1650514562242" class="icon" viewBox="0 0 1024 1024" version="1.1" xmlns="http://www.w3.org/2000/svg" p-id="1859" xmlns:xlink="http://www.w3.org/1999/xlink" width="200" height="200"><defs><style type="text/css">@font-face { font-family: feedback-iconfont; src: url("//at.alicdn.com/t/font_1031158_u69w8yhxdu.woff2?t=1630033759944") format("woff2"), url("//at.alicdn.com/t/font_1031158_u69w8yhxdu.woff?t=1630033759944") format("woff"), url("//at.alicdn.com/t/font_1031158_u69w8yhxdu.ttf?t=1630033759944") format("truetype"); }
</style></defs><path d="M22.3 178.1h979.5c12.2 0 22.3-10 22.3-22.3 0-12.2-10-22.3-22.3-22.3H22.3C10 133.6 0 143.6 0 155.8c0 12.3 10 22.3 22.3 22.3zM1001.7 845.9H22.3C10 845.9 0 855.9 0 868.2c0 12.2 10 22.3 22.3 22.3h979.5c12.2 0 22.3-10 22.3-22.3-0.1-12.3-10.1-22.3-22.4-22.3zM1001.7 489.7H22.3C10 489.7 0 499.8 0 512s10 22.3 22.3 22.3h979.5c12.2 0 22.3-10 22.3-22.3s-10.1-22.3-22.4-22.3z" fill="" p-id="1860"></path></svg>